<svg data-v-d9851cbf="" xmlns="http://www.w3.org/2000/svg" fill="none" viewBox="0 0 40 40" class="icon discord" aria-hidden="true" width="50" height="50"><g clip-path="url(#a)"><path fill="#5865F2" d="M33.862 7.283a33 33 0 0 0-8.142-2.525.12.12 0 0 0-.131.062 23 23 0 0 0-1.014 2.082 30.5 30.5 0 0 0-9.144 0A21 21 0 0 0 14.4 4.82a.13.13 0 0 0-.13-.062 33 33 0 0 0-8.143 2.525.1.1 0 0 0-.053.046C.889 15.076-.532 22.633.165 30.096a.14.14 0 0 0 .052.094c3.422 2.512 6.736 4.038 9.989 5.049a.13.13 0 0 0 .14-.046 24 24 0 0 0 2.043-3.324.13.13 0 0 0 .005-.103.13.13 0 0 0-.074-.073 22 22 0 0 1-3.12-1.487.13.13 0 0 1-.052-.164.13.13 0 0 1 .039-.049c.21-.157.42-.32.62-.486a.12.12 0 0 1 .129-.017c6.546 2.989 13.633 2.989 20.102 0a.12.12 0 0 1 .131.016c.2.165.41.33.621.487a.13.13 0 0 1 .033.169.13.13 0 0 1-.044.044 20.5 20.5 0 0 1-3.121 1.485.127.127 0 0 0-.068.178 27 27 0 0 0 2.041 3.322.13.13 0 0 0 .14.048c3.27-1.011 6.583-2.537 10.005-5.05a.13.13 0 0 0 .052-.091c.834-8.628-1.397-16.123-5.914-22.767a.1.1 0 0 0-.052-.048M13.367 25.552c-1.971 0-3.595-1.81-3.595-4.032s1.592-4.031 3.595-4.031c2.018 0 3.626 1.825 3.595 4.031 0 2.223-1.593 4.032-3.595 4.032m13.291 0c-1.97 0-3.595-1.81-3.595-4.032s1.593-4.031 3.595-4.031c2.018 0 3.626 1.825 3.595 4.031 0 2.223-1.577 4.032-3.595 4.032"></path></g><defs><clipPath id="a"><path fill="#fff" d="M0 0h40v40H0z"></path></clipPath></defs></svg>