<?xml version="1.0" standalone="no"?>
<!DOCTYPE svg PUBLIC "-//W3C//DTD SVG 20010904//EN"
 "http://www.w3.org/TR/2001/REC-SVG-20010904/DTD/svg10.dtd">
<svg version="1.0" xmlns="http://www.w3.org/2000/svg"
 width="240.000000pt" height="240.000000pt" viewBox="0 0 240.000000 240.000000"
 preserveAspectRatio="xMidYMid meet">

<g transform="translate(0.000000,240.000000) scale(0.100000,-0.100000)"
fill="#000000" stroke="none">
<path d="M308 1990 c-52 -16 -98 -52 -126 -98 l-27 -47 0 -665 c0 -651 0 -666
20 -700 40 -67 66 -75 283 -78 l192 -4 0 406 c0 223 2 406 5 406 3 0 123 -88
267 -196 144 -108 268 -197 276 -198 7 0 135 89 283 199 l268 200 1 308 c0
169 -2 307 -5 307 -3 0 -123 -89 -268 -197 -144 -109 -269 -197 -277 -197 -8
0 -178 122 -377 271 -398 299 -421 312 -515 283z"/>
</g>
</svg>
